<svg xmlns="http://www.w3.org/2000/svg" width="337" height="72.741" viewBox="0 0 337 72.741" fill="none">
  <path d="M 2.624 50.444 L 2.624 71.568 L 0 71.568 L 0 23.788 L 15.235 23.788 C 27.762 23.788 33.772 28.566 33.772 37.116 C 33.772 44.409 29.37 48.935 20.314 50.109 L 20.314 51.701 L 34.364 71.568 L 31.232 71.568 L 16.42 50.444 L 2.624 50.444 Z M 15.066 26.135 L 3.978 26.135 L 2.624 27.476 L 2.624 48.097 L 15.066 48.097 C 26.154 48.097 31.148 44.241 31.148 37.116 C 31.148 29.991 26.154 26.135 15.066 26.135 Z" fill="currentColor" fill-rule="nonzero"/>
  <path d="M 49.79 53.797 C 49.79 43.068 57.831 34.853 68.75 34.853 C 79.669 34.853 62.5 43.068 62.5 53.797 C 62.5 64.526 79.669 72.741 68.75 72.741 C 57.831 72.741 49.79 64.526 49.79 53.797 Z M 129 1.241 C 129 -7.979 78.23 37.2 68.75 37.2 C 59.27 37.2 52.414 44.576 52.414 53.797 C 52.414 63.018 59.27 70.394 68.75 70.394 C 78.23 70.394 129 10.462 129 1.241 Z" fill="currentColor" fill-rule="nonzero"/>
  <path d="M 108.722 48.516 L 108.722 71.568 L 106.183 71.568 L 106.183 36.026 L 108.722 36.026 L 108.722 42.9 L 109.738 42.9 C 112.362 38.709 117.525 34.853 123.449 34.853 C 132.252 34.853 136.992 40.134 136.992 49.438 L 136.992 71.568 L 134.368 71.568 L 134.368 49.606 C 134.368 42.229 130.982 37.284 123.449 37.284 C 116.255 37.284 111.092 43.235 108.722 48.516 Z" fill="currentColor" fill-rule="nonzero"/>
  <path d="M 173.071 28.398 C 169.6 28.398 166.807 25.632 166.807 22.112 C 166.807 18.423 169.6 15.741 173.071 15.741 C 176.795 15.741 179.588 18.423 179.588 22.112 C 179.588 25.632 176.795 28.398 173.071 28.398 Z M 177.81 63.688 L 184 65.029 L 192.369 65.7 L 192.369 71.568 L 155.042 71.568 L 155.042 65.7 L 169.516 65.7 L 171.462 63.688 L 171.462 43.822 L 169.516 41.894 L 155.042 41.894 L 155.042 36.026 L 177.81 36.026 L 177.81 63.688 Z" fill="currentColor" fill-rule="nonzero"/>
  <path d="M 240.128 71.568 L 221.507 53.043 L 212.62 60.168 L 212.62 71.568 L 210.08 71.568 L 210.08 20.184 L 212.62 20.184 L 212.62 56.312 L 213.804 56.312 L 238.943 36.026 L 242.667 36.026 L 224.3 50.779 L 224.3 52.372 L 243.598 71.568 L 240.128 71.568 Z" fill="currentColor" fill-rule="nonzero"/>
  <path d="M 255.808 42.062 C 261.564 37.032 269.012 34.853 276.545 34.853 C 287.294 34.853 291.78 40.553 291.78 47.846 L 291.78 62.347 C 291.78 63.94 292.119 65.029 293.812 65.029 C 294.997 65.029 296.012 64.191 298.551 62.263 L 302.36 67.796 C 298.297 71.4 295.843 72.741 292.034 72.741 C 288.648 72.741 285.517 70.729 284.163 67.46 L 281.539 67.46 C 277.645 70.059 272.821 72.741 267.065 72.741 C 259.786 72.741 255.046 69.388 255.046 63.101 C 255.046 57.737 259.024 53.965 266.811 52.037 L 283.57 47.846 L 283.57 47.51 C 283.57 44.409 281.708 42.397 275.614 42.397 C 269.943 42.397 264.441 44.912 259.955 48.935 L 255.808 42.062 Z M 283.57 58.659 L 283.57 56.228 L 281.623 55.054 L 268.504 58.24 C 266.219 58.826 264.018 60.084 264.018 62.347 C 264.018 64.694 265.626 65.7 268.25 65.7 C 273.244 65.7 278.83 62.347 283.57 58.659 Z" fill="currentColor" fill-rule="nonzero"/>
  <path d="M 320.41 64.526 C 320.41 60 324.135 56.312 328.705 56.312 C 333.276 56.312 337 60 337 64.526 C 337 69.053 333.276 72.741 328.705 72.741 C 324.135 72.741 320.41 69.053 320.41 64.526 Z" fill="currentColor" fill-rule="nonzero"/>
</svg>
