<svg xmlns="http://www.w3.org/2000/svg" width="62.351" height="14.868" viewBox="0 0 62.351 14.868" fill="none">
  <path d="M 6.207 6.49 C 6.625 6.49 7.002 6.409 7.339 6.247 C 7.676 6.072 7.945 5.836 8.148 5.54 C 8.35 5.23 8.451 4.872 8.451 4.468 C 8.451 4.05 8.35 3.693 8.148 3.396 C 7.945 3.087 7.676 2.851 7.339 2.689 C 7.002 2.527 6.625 2.446 6.207 2.446 L 2.183 2.446 L 2.183 6.49 L 6.207 6.49 Z M 8.107 7.48 C 8.511 7.48 8.882 7.581 9.219 7.784 C 9.569 7.986 9.846 8.262 10.048 8.613 C 10.25 8.95 10.351 9.32 10.351 9.724 L 10.351 14.617 L 8.35 14.617 C 8.35 13 8.35 11.389 8.35 9.785 C 8.35 9.435 8.215 9.131 7.945 8.875 C 7.689 8.606 7.379 8.471 7.015 8.471 L 2.143 8.471 L 2.143 14.617 L 0 14.617 L 0 0.465 L 6.449 0.465 C 7.379 0.465 8.154 0.62 8.774 0.93 C 9.408 1.24 9.873 1.658 10.169 2.183 C 10.479 2.709 10.634 3.309 10.634 3.983 C 10.634 4.63 10.473 5.182 10.149 5.641 C 9.839 6.099 9.495 6.443 9.118 6.672 C 8.741 6.901 8.417 7.063 8.148 7.157 L 8.107 7.157 L 8.107 7.48 Z" fill="currentColor" fill-rule="nonzero"/>
  <path d="M 17.259 13.222 C 17.933 13.222 18.485 13.054 18.917 12.717 C 19.348 12.366 19.665 11.921 19.867 11.382 C 20.069 10.843 20.17 10.277 20.17 9.684 C 20.17 9.091 20.069 8.525 19.867 7.986 C 19.665 7.447 19.348 7.009 18.917 6.672 C 18.485 6.321 17.933 6.146 17.259 6.146 C 16.585 6.146 16.026 6.321 15.581 6.672 C 15.15 7.009 14.833 7.447 14.631 7.986 C 14.442 8.525 14.348 9.091 14.348 9.684 C 14.348 10.277 14.442 10.843 14.631 11.382 C 14.833 11.921 15.15 12.366 15.581 12.717 C 16.026 13.054 16.585 13.222 17.259 13.222 Z M 17.259 4.508 C 18.351 4.508 19.254 4.765 19.968 5.277 C 20.696 5.775 21.221 6.422 21.545 7.218 C 21.882 7.999 22.05 8.821 22.05 9.684 C 22.05 10.547 21.882 11.376 21.545 12.171 C 21.221 12.953 20.696 13.599 19.968 14.112 C 19.254 14.61 18.351 14.86 17.259 14.86 C 16.154 14.86 15.237 14.61 14.509 14.112 C 13.795 13.599 13.269 12.953 12.932 12.171 C 12.609 11.376 12.447 10.547 12.447 9.684 C 12.447 8.821 12.609 7.999 12.932 7.218 C 13.269 6.422 13.795 5.775 14.509 5.277 C 15.237 4.765 16.154 4.508 17.259 4.508 Z" fill="currentColor" fill-rule="nonzero"/>
  <path d="M 33.553 7.157 C 33.769 7.75 33.877 8.35 33.877 8.956 L 33.877 14.617 L 31.693 14.617 L 31.693 9.118 C 31.693 8.336 31.518 7.689 31.168 7.177 C 30.831 6.665 30.292 6.368 29.55 6.288 C 28.957 6.22 28.445 6.301 28.014 6.53 C 27.596 6.759 27.266 7.09 27.023 7.521 C 26.794 7.952 26.646 8.451 26.578 9.017 C 26.524 9.812 26.498 10.628 26.498 11.463 L 26.498 14.617 L 24.314 14.617 L 24.314 4.751 L 26.498 4.751 L 26.498 5.256 C 26.498 5.566 26.45 5.917 26.356 6.308 C 26.262 6.685 26.154 7.042 26.033 7.379 L 26.336 7.379 C 26.538 6.638 26.875 6.031 27.347 5.56 C 27.818 5.088 28.364 4.778 28.984 4.63 C 29.618 4.468 30.244 4.461 30.864 4.61 C 31.538 4.771 32.104 5.088 32.563 5.56 C 33.021 6.018 33.351 6.55 33.553 7.157 Z" fill="currentColor" fill-rule="nonzero"/>
  <path d="M 38.873 4.973 C 39.021 5.108 39.095 5.283 39.095 5.499 L 39.095 14.617 L 36.912 14.617 L 36.912 7.137 C 36.912 7.015 36.872 6.921 36.791 6.854 C 36.71 6.773 36.615 6.732 36.508 6.732 L 35.618 6.732 L 35.618 4.751 L 38.347 4.751 C 38.55 4.751 38.725 4.825 38.873 4.973 Z M 37.114 1.9 C 37.343 2.116 37.62 2.224 37.943 2.224 C 38.24 2.224 38.496 2.116 38.711 1.9 C 38.94 1.671 39.055 1.408 39.055 1.112 C 39.055 0.802 38.94 0.539 38.711 0.323 C 38.496 0.108 38.24 0 37.943 0 C 37.62 0 37.343 0.108 37.114 0.323 C 36.898 0.539 36.791 0.802 36.791 1.112 C 36.791 1.408 36.898 1.671 37.114 1.9 Z" fill="currentColor" fill-rule="nonzero"/>
  <path d="M 43.95 9.179 L 44.415 9.179 L 48.479 4.751 L 50.905 4.751 L 46.174 9.947 L 46.174 10.27 L 50.763 14.637 L 48.094 14.617 L 44.455 11.14 L 43.95 11.14 L 43.95 14.617 L 41.766 14.617 L 41.766 0.465 L 43.95 0.465 L 43.95 9.179 Z" fill="currentColor" fill-rule="nonzero"/>
  <path d="M 58.935 9.259 C 58.813 9.354 58.584 9.448 58.247 9.543 C 57.91 9.623 57.466 9.711 56.913 9.805 C 56.482 9.886 56.003 9.967 55.478 10.048 C 55.046 10.115 54.662 10.291 54.325 10.574 C 53.988 10.843 53.82 11.194 53.82 11.625 C 53.82 12.029 53.961 12.373 54.244 12.656 C 54.527 12.926 54.871 13.094 55.275 13.161 C 55.707 13.202 56.077 13.202 56.387 13.161 C 56.697 13.121 57.048 12.993 57.439 12.777 C 57.843 12.548 58.166 12.258 58.409 11.908 C 58.665 11.558 58.82 11.194 58.874 10.816 C 58.914 10.56 58.935 10.284 58.935 9.987 L 58.935 9.259 Z M 62.351 14.637 L 60.774 14.637 C 60.384 14.637 60.074 14.523 59.844 14.294 C 59.629 14.051 59.521 13.748 59.521 13.384 C 59.521 13.101 59.555 12.824 59.622 12.555 C 59.689 12.272 59.764 12.023 59.844 11.807 L 59.521 11.807 C 59.373 12.238 59.15 12.663 58.854 13.081 C 58.557 13.498 58.214 13.835 57.823 14.091 C 57.311 14.415 56.765 14.637 56.185 14.759 C 55.606 14.88 54.999 14.9 54.366 14.819 C 53.907 14.765 53.476 14.617 53.072 14.374 C 52.667 14.118 52.344 13.781 52.101 13.364 C 51.859 12.946 51.737 12.481 51.737 11.969 C 51.737 11.16 51.953 10.533 52.384 10.088 C 52.829 9.644 53.402 9.34 54.103 9.179 C 54.426 9.098 54.77 9.037 55.134 8.997 C 55.498 8.943 55.835 8.896 56.145 8.855 C 56.697 8.788 57.129 8.727 57.439 8.673 L 57.701 8.613 C 58.119 8.532 58.423 8.431 58.611 8.309 C 58.8 8.175 58.861 7.959 58.793 7.662 C 58.739 7.406 58.604 7.177 58.389 6.975 C 58.173 6.759 57.897 6.598 57.56 6.49 C 57.236 6.368 56.866 6.308 56.448 6.308 C 55.936 6.308 55.491 6.395 55.114 6.571 C 54.736 6.746 54.446 6.982 54.244 7.278 C 54.042 7.575 53.941 7.891 53.941 8.228 L 51.818 8.228 C 51.818 7.595 51.993 6.995 52.344 6.429 C 52.708 5.85 53.24 5.385 53.941 5.034 C 54.642 4.684 55.491 4.508 56.488 4.508 C 57.472 4.508 58.315 4.69 59.016 5.054 C 59.716 5.405 60.242 5.87 60.593 6.449 C 60.943 7.029 61.118 7.662 61.118 8.35 L 61.118 12.231 C 61.118 12.339 61.159 12.44 61.239 12.535 C 61.334 12.616 61.442 12.656 61.563 12.656 L 62.351 12.656 L 62.351 14.637 Z" fill="currentColor" fill-rule="nonzero"/>
</svg>
